<mxfile host="app.diagrams.net" modified="2021-05-01T18:00:51.433Z" agent="5.0 (Windows NT 10.0; Win64; x64) AppleWebKit/537.36 (KHTML, like Gecko) Chrome/90.0.4430.93 Safari/537.36" etag="5KMFDjq7bgBfBQBdlBph" version="14.6.9" type="github">
  <diagram id="w_z_DusZAt3UVTGT0BAG" name="Page-1">
    <mxGraphModel dx="1108" dy="482" grid="1" gridSize="10" guides="1" tooltips="1" connect="1" arrows="1" fold="1" page="1" pageScale="1" pageWidth="827" pageHeight="1169" math="0" shadow="0">
      <root>
        <mxCell id="0" />
        <mxCell id="1" parent="0" />
        <mxCell id="mynZJmNoeIbceYBsEaV5-13" style="edgeStyle=orthogonalEdgeStyle;rounded=0;orthogonalLoop=1;jettySize=auto;html=1;exitX=0.5;exitY=1;exitDx=0;exitDy=0;" edge="1" parent="1" source="mynZJmNoeIbceYBsEaV5-1" target="mynZJmNoeIbceYBsEaV5-4">
          <mxGeometry relative="1" as="geometry" />
        </mxCell>
        <mxCell id="mynZJmNoeIbceYBsEaV5-1" value="&lt;span style=&quot;font-size: 14.0pt ; line-height: 107% ; font-family: &amp;#34;calibri&amp;#34; , sans-serif&quot;&gt;Realizar un estudio de localización&amp;nbsp;&lt;/span&gt;" style="rounded=1;whiteSpace=wrap;html=1;fillColor=#FFCCCC;" vertex="1" parent="1">
          <mxGeometry x="257" y="100" width="320" height="90" as="geometry" />
        </mxCell>
        <mxCell id="mynZJmNoeIbceYBsEaV5-3" value="&lt;p class=&quot;MsoListParagraph&quot; style=&quot;text-indent: -18.0pt&quot;&gt;&lt;span style=&quot;font-size: 14.0pt ; line-height: 107%&quot;&gt;Buscar lugares para establecer la empresa físicamente&lt;/span&gt;&lt;b&gt;&lt;span style=&quot;font-size: 20.0pt ; line-height: 107%&quot;&gt;&lt;/span&gt;&lt;/b&gt;&lt;/p&gt;" style="text;html=1;align=center;verticalAlign=middle;resizable=0;points=[];autosize=1;strokeColor=none;" vertex="1" parent="1">
          <mxGeometry x="200" y="20" width="450" height="60" as="geometry" />
        </mxCell>
        <mxCell id="mynZJmNoeIbceYBsEaV5-10" style="edgeStyle=orthogonalEdgeStyle;rounded=0;orthogonalLoop=1;jettySize=auto;html=1;exitX=0.5;exitY=1;exitDx=0;exitDy=0;entryX=0.5;entryY=0;entryDx=0;entryDy=0;" edge="1" parent="1" source="mynZJmNoeIbceYBsEaV5-4" target="mynZJmNoeIbceYBsEaV5-5">
          <mxGeometry relative="1" as="geometry" />
        </mxCell>
        <mxCell id="mynZJmNoeIbceYBsEaV5-4" value="&lt;span style=&quot;font-size: 14.0pt ; line-height: 107% ; font-family: &amp;#34;calibri&amp;#34; , sans-serif&quot;&gt;Evaluar&lt;br&gt;posibles opciones de localización de la empresa&lt;/span&gt;" style="rounded=1;whiteSpace=wrap;html=1;fillColor=#FFCCCC;" vertex="1" parent="1">
          <mxGeometry x="257" y="240" width="320" height="90" as="geometry" />
        </mxCell>
        <mxCell id="mynZJmNoeIbceYBsEaV5-7" value="" style="edgeStyle=orthogonalEdgeStyle;rounded=0;orthogonalLoop=1;jettySize=auto;html=1;" edge="1" parent="1" source="mynZJmNoeIbceYBsEaV5-5" target="mynZJmNoeIbceYBsEaV5-6">
          <mxGeometry relative="1" as="geometry" />
        </mxCell>
        <mxCell id="mynZJmNoeIbceYBsEaV5-5" value="&lt;div&gt;&lt;span style=&quot;font-family: &amp;#34;calibri&amp;#34; , sans-serif ; font-size: 14pt&quot;&gt;Tomar&amp;nbsp;&lt;/span&gt;&lt;span style=&quot;font-size: 14pt ; font-family: &amp;#34;calibri&amp;#34; , sans-serif&quot;&gt;en cuenta los diversos criterios y objetivos&lt;/span&gt;&lt;/div&gt;" style="rounded=1;whiteSpace=wrap;html=1;fillColor=#FFCCCC;align=center;" vertex="1" parent="1">
          <mxGeometry x="255" y="370" width="320" height="90" as="geometry" />
        </mxCell>
        <mxCell id="mynZJmNoeIbceYBsEaV5-9" style="edgeStyle=orthogonalEdgeStyle;rounded=0;orthogonalLoop=1;jettySize=auto;html=1;exitX=0.5;exitY=1;exitDx=0;exitDy=0;" edge="1" parent="1" source="mynZJmNoeIbceYBsEaV5-6" target="mynZJmNoeIbceYBsEaV5-8">
          <mxGeometry relative="1" as="geometry" />
        </mxCell>
        <mxCell id="mynZJmNoeIbceYBsEaV5-6" value="&lt;span style=&quot;font-size: 14.0pt ; line-height: 107% ; font-family: &amp;#34;calibri&amp;#34; , sans-serif&quot;&gt;Contemplar&lt;br&gt;los asuntos relacionados con la expansión y diversificación del negocio y&lt;br&gt;además la adaptabilidad de la posición&lt;/span&gt;" style="rounded=1;whiteSpace=wrap;html=1;fillColor=#FFCCCC;" vertex="1" parent="1">
          <mxGeometry x="257" y="500" width="316" height="100" as="geometry" />
        </mxCell>
        <mxCell id="mynZJmNoeIbceYBsEaV5-8" value="&lt;span style=&quot;font-size: 14.0pt ; line-height: 107% ; font-family: &amp;#34;calibri&amp;#34; , sans-serif&quot;&gt;Tomaremos&lt;br/&gt;en cuenta las posibles variaciones de mercado, infraestructura y logística para&lt;br/&gt;tratar de predecir el valor del sitio en el futuro&lt;/span&gt;" style="rounded=1;whiteSpace=wrap;html=1;fillColor=#FFCCCC;" vertex="1" parent="1">
          <mxGeometry x="257" y="630" width="316" height="100" as="geometry" />
        </mxCell>
      </root>
    </mxGraphModel>
  </diagram>
</mxfile>
